<?xml version="1.0" encoding="UTF-8" standalone="no"?>
<!-- Created with Inkscape (http://www.inkscape.org/) -->

<svg
   xmlns:dc="http://purl.org/dc/elements/1.1/"
   xmlns:cc="http://creativecommons.org/ns#"
   xmlns:rdf="http://www.w3.org/1999/02/22-rdf-syntax-ns#"
   xmlns:svg="http://www.w3.org/2000/svg"
   xmlns="http://www.w3.org/2000/svg"
   xmlns:sodipodi="http://sodipodi.sourceforge.net/DTD/sodipodi-0.dtd"
   xmlns:inkscape="http://www.inkscape.org/namespaces/inkscape"
   width="720"
   height="480"
   id="svg2"
   version="1.1"
   inkscape:version="0.48.4 r9939"
   sodipodi:docname="drawing.svg">
  <defs
     id="defs4" />
  <sodipodi:namedview
     id="base"
     pagecolor="#ffffff"
     bordercolor="#666666"
     borderopacity="1.0"
     inkscape:pageopacity="0.0"
     inkscape:pageshadow="2"
     inkscape:zoom="0.9899495"
     inkscape:cx="559.57636"
     inkscape:cy="248.20398"
     inkscape:document-units="px"
     inkscape:current-layer="layer1"
     showgrid="false"
     inkscape:window-width="1920"
     inkscape:window-height="1017"
     inkscape:window-x="-8"
     inkscape:window-y="-8"
     inkscape:window-maximized="1" />
  <metadata
     id="metadata7">
    <rdf:RDF>
      <cc:Work
         rdf:about="">
        <dc:format>image/svg+xml</dc:format>
        <dc:type
           rdf:resource="http://purl.org/dc/dcmitype/StillImage" />
        <dc:title />
      </cc:Work>
    </rdf:RDF>
  </metadata>
  <g
     inkscape:label="Layer 1"
     inkscape:groupmode="layer"
     id="layer1"
     transform="translate(0,-572.36218)">
    <rect
       style="fill:#999999;fill-opacity:1;stroke:none"
       id="rect2985"
       width="41.496902"
       height="48.736034"
       x="108.22335"
       y="1001.4048" />
    <rect
       y="1001.4048"
       x="200.43869"
       height="48.736034"
       width="41.496902"
       id="rect3005"
       style="fill:#999999;fill-opacity:1;stroke:none" />
    <rect
       style="fill:#999999;fill-opacity:1;stroke:none"
       id="rect3007"
       width="41.496902"
       height="48.736034"
       x="292.65402"
       y="1001.4048" />
    <rect
       y="1001.4048"
       x="384.86935"
       height="48.736034"
       width="41.496902"
       id="rect3009"
       style="fill:#999999;fill-opacity:1;stroke:none" />
    <rect
       style="fill:#999999;fill-opacity:1;stroke:none"
       id="rect3011"
       width="41.496902"
       height="48.736034"
       x="477.08469"
       y="1001.4048" />
    <rect
       style="fill:#999999;fill-opacity:1;stroke:none"
       id="rect3015"
       width="41.496902"
       height="48.736034"
       x="569.30005"
       y="1001.4048" />
    <path
       style="fill:#ffff00;stroke:#ffff00;stroke-width:1px;stroke-linecap:butt;stroke-linejoin:miter;stroke-opacity:1"
       d="m 0.5,1056.8622 c 3.183807,-0.796 2.162982,-0.02 3.571429,-1.4286 0.238095,-0.2381 0.413116,-0.5637 0.714285,-0.7143 0.985256,-0.4926 0.638909,0.8651 1.428572,-0.7143 0.106479,-0.2129 -0.10648,-0.5013 0,-0.7142 1.634503,-3.269 -0.296052,3.031 1.428571,-2.1429 0.439813,-1.3194 -1.08993,-0.3386 0.714286,-2.1429 0.168359,-0.1683 0.607806,0.213 0.714286,0 0.212958,-0.4259 -0.212959,-1.0026 0,-1.4285 0.106479,-0.213 0.545926,0.1683 0.714285,0 0.168359,-0.1684 -0.106479,-0.5014 0,-0.7143 0.150585,-0.3012 0.476191,-0.4762 0.714286,-0.7143 0.238095,-0.2381 0.413116,-0.5637 0.714286,-0.7143 0.212958,-0.1065 0.545926,0.1684 0.714285,0 0.168359,-0.1683 -0.168359,-0.5459 0,-0.7143 0.376462,-0.3764 0.952381,-0.4762 1.428572,-0.7143 0.47619,-0.2381 0.91207,-0.5851 1.428571,-0.7142 0.461973,-0.1155 0.976818,0.1505 1.428572,0 0.319438,-0.1065 0.434119,-0.5276 0.714285,-0.7143 0.442981,-0.2954 0.985591,-0.419 1.428572,-0.7143 0.280166,-0.1868 0.394847,-0.6078 0.714285,-0.7143 0.451754,-0.1506 0.976818,0.1506 1.428572,0 0.319438,-0.1065 0.413116,-0.5637 0.714286,-0.7143 0.212958,-0.1065 0.501326,0.1065 0.714285,0 0.602339,-0.3012 0.789695,-1.2156 1.428572,-1.4286 0.903508,-0.3011 1.933197,0.231 2.857143,0 3.449246,-0.8623 -0.0354,-0.3394 2.142857,-1.4285 0.160093,-0.08 2.687407,0 2.857143,0 1.428571,0 2.857142,0 4.285714,0 2.619048,0 5.238095,0 7.857143,0 0.300473,0 4.073232,-0.1063 4.285714,0 0.301169,0.1506 0.394847,0.6078 0.714286,0.7143 0.451754,0.1505 0.952381,0 1.428571,0 0.714286,0 1.442443,-0.1401 2.142857,0 0.476191,0.2381 0.952381,0.4761 1.428572,0.7142 0,0.2381 -0.212959,0.6078 0,0.7143 2.263231,1.1316 0.664713,-1.4781 2.857143,0.7143 0.168358,0.1684 -0.168359,0.5459 0,0.7143 0.168358,0.1684 0.501326,-0.1065 0.714285,0 0.30117,0.1506 0.43412,0.5275 0.714286,0.7143 0.442981,0.2953 1.05211,0.3378 1.428571,0.7143 0.168359,0.1683 -0.168358,0.5459 0,0.7143 0.168359,0.1683 0.545927,-0.1684 0.714286,0 1.477883,1.4778 -2.2584,-0.058 0.714286,1.4285 0.212959,0.1065 0.545927,-0.1683 0.714286,0 0.336717,0.3367 -0.212959,1.0027 0,1.4286 0.789662,1.5793 0.443316,0.2217 1.428571,0.7143 0.301169,0.1506 0.476191,0.4762 0.714286,0.7143 0.238095,0.2381 0.563701,0.4131 0.714285,0.7143 0.10648,0.2129 -0.168358,0.5459 0,0.7142 0.168359,0.1684 0.501327,-0.1064 0.714286,0 0.30117,0.1506 0.394848,0.6078 0.714286,0.7143 0.451754,0.1506 1.091854,-0.3367 1.428571,0 0.336718,0.3367 -0.336717,1.0919 0,1.4286 0.336718,0.3367 1.091854,-0.3367 1.428572,0 0.336717,0.3367 -0.264143,1.0324 0,1.4286 0.295321,0.443 0.98559,0.4189 1.428571,0.7143 0.280166,0.1867 0.413117,0.5637 0.714286,0.7142 0.425918,0.213 1.002654,-0.2129 1.428571,0 0.30117,0.1506 0.413117,0.5637 0.714286,0.7143 0.26034,0.1302 3.159859,0 3.571429,0 1.666666,0 3.333333,0 5,0 0.47619,0 0.976817,0.1506 1.428571,0 0.319438,-0.1065 0.413116,-0.5637 0.714286,-0.7143 0.455742,-0.2278 3.132076,0.2197 3.571428,0 0.212959,-0.1064 -0.168358,-0.5459 0,-0.7142 0.168359,-0.1684 0.476191,0 0.714286,0 0.714286,0 1.449898,0.1732 2.142857,0 0.326664,-0.082 0.413117,-0.5637 0.714286,-0.7143 0.212959,-0.1065 0.47619,0 0.714286,0 0.238095,0 0.47619,0 0.714285,0 0.701961,0 4.096743,0.095 4.285715,0 0.212959,-0.1065 -0.168359,-0.546 0,-0.7143 0.168358,-0.1684 0.501327,0.1065 0.714285,0 0.30117,-0.1506 0.413117,-0.5637 0.714286,-0.7143 0.212959,-0.1065 0.501327,0.1065 0.714286,0 0.301169,-0.1506 0.413116,-0.5637 0.714286,-0.7143 0.212959,-0.1065 0.501329,0.1065 0.714289,0 0.301172,-0.1506 0.413112,-0.5637 0.714282,-0.7143 0.21296,-0.1065 0.48841,0.075 0.71429,0 0.50507,-0.1683 0.92349,-0.5459 1.42857,-0.7143 0.45175,-0.1505 0.95238,0 1.42857,0 1.42857,0 2.85714,0 4.28572,0 2.14285,0 4.28571,0 6.42857,0 0.24334,0 2.47056,-0.1288 2.85714,0 0.50508,0.1684 0.9235,0.546 1.42857,0.7143 0.403,0.1344 1.6735,0 2.14286,0 1.42857,0 2.85714,0 4.28571,0 2.38096,0 4.76191,0 7.14286,0 0.71429,0 1.42857,0 2.14286,0 0.23809,0 0.54592,0.1684 0.71428,0 0.16836,-0.1683 -0.21296,-0.6078 0,-0.7143 0.42592,-0.2129 0.95238,0 1.42857,0 0.71429,0 1.44245,0.1401 2.14286,0 0.52206,-0.1044 0.9235,-0.5459 1.42857,-0.7142 0.38658,-0.1289 2.61381,0 2.85715,0 1.42857,0 2.85714,0 4.28571,0 0.32168,0 1.92548,0.1086 2.14286,0 0.30117,-0.1506 0.41311,-0.5637 0.71428,-0.7143 0.21296,-0.1065 0.48841,0.075 0.71429,0 0.50508,-0.1684 0.90651,-0.6099 1.42857,-0.7143 0.70041,-0.1401 1.46523,0.2259 2.14286,0 0.22587,-0.075 -0.10648,-0.5013 0,-0.7143 0.0684,-0.1367 2.72041,-2.7888 2.85714,-2.8571 0.21296,-0.1065 0.50133,0.1064 0.71429,0 0.30117,-0.1506 0.41311,-0.5637 0.71428,-0.7143 0.21296,-0.1065 0.60781,0.2129 0.71429,0 0.21296,-0.4259 -0.21296,-1.0027 0,-1.4286 0.10648,-0.213 0.54592,0.1684 0.71428,0 0.37646,-0.3765 0.41897,-0.9856 0.71429,-1.4286 0.18678,-0.2801 0.5637,-0.4131 0.71428,-0.7143 0.10648,-0.2129 -0.10647,-0.5013 0,-0.7142 0.47892,-0.9579 0.94966,-0.4708 1.42858,-1.4286 0.10648,-0.213 -0.10648,-0.5013 0,-0.7143 0.0948,-0.1897 1.9532,-2.048 2.14285,-2.1429 0.21296,-0.1064 0.54593,0.1684 0.71429,0 0.16836,-0.1683 -0.21296,-0.6078 0,-0.7142 0.42592,-0.213 1.00265,0.2129 1.42857,0 0.21296,-0.1065 -0.16836,-0.546 0,-0.7143 0.16836,-0.1684 0.47619,0 0.71429,0 0.47619,0 0.95238,0 1.42857,0 4.73797,0 -1.01016,0.3367 2.14285,-0.7143 0.45176,-0.1506 0.95239,0 1.42858,0 0.23809,0 0.50132,0.1065 0.71428,0 0.30117,-0.1506 0.41312,-0.5637 0.71429,-0.7143 0.32891,-0.1645 3.5454,0 4.28571,0 0.95238,0 1.90476,0 2.85714,0 0.47619,0 0.95239,0 1.42858,0 0.23809,0 0.4884,-0.075 0.71428,0 0.50508,0.1684 0.9235,0.5459 1.42857,0.7143 0.22588,0.075 0.54593,-0.1684 0.71429,0 0.37646,0.3764 0.33782,1.0521 0.71428,1.4286 0.16836,0.1683 0.50133,-0.1065 0.71429,0 0.21471,0.1073 1.21387,1.3212 1.42857,1.4285 0.21296,0.1065 0.47619,0 0.71429,0 0.47619,0.4762 0.86824,1.055 1.42857,1.4286 0.19811,0.1321 0.54593,-0.1684 0.71428,0 0.37647,0.3765 0.33783,1.0521 0.71429,1.4286 0.16836,0.1683 0.50133,-0.1065 0.71429,0 0.30117,0.1506 0.41311,0.5637 0.71428,0.7143 0.38503,0.1925 1.04355,-0.1926 1.42857,0 0.30117,0.1505 0.5637,0.4131 0.71429,0.7142 0.10648,0.213 -0.21296,0.6078 0,0.7143 0.42592,0.213 1.00265,-0.2129 1.42857,0 0.21296,0.1065 -0.16836,0.546 0,0.7143 0.37646,0.3765 1.05211,0.3378 1.42857,0.7143 0.16836,0.1684 -0.10648,0.5013 0,0.7143 0.31655,0.6331 1.70938,1.4926 2.14286,2.1428 0.29532,0.443 0.33782,1.0522 0.71428,1.4286 0.16836,0.1684 0.54593,-0.1683 0.71429,0 0.37646,0.3765 0.33782,1.0521 0.71429,1.4286 0.0178,0.018 3.30308,0 3.57142,0 1.98182,0 2.02085,0.3194 3.57143,-0.7143 0.28017,-0.1868 0.39485,-0.6078 0.71429,-0.7143 0.45175,-0.1506 0.9666,0.1155 1.42857,0 0.5165,-0.1291 0.95238,-0.4762 1.42857,-0.7143 0.47619,-0.2381 0.95238,-0.4762 1.42857,-0.7143 0.95238,-0.4761 1.97118,-0.8379 2.85715,-1.4285 2.36898,-2.369 -0.67344,0.3367 1.42857,-0.7143 0.30117,-0.1506 0.39484,-0.6078 0.71428,-0.7143 0.39377,-0.1313 3.67954,0 4.28572,0 0.38158,0 3.367,-0.1022 3.57143,0 0.30117,0.1506 0.41311,0.5637 0.71428,0.7143 0.21296,0.1065 0.48841,-0.075 0.71429,0 0.50507,0.1683 0.92349,0.5459 1.42857,0.7143 0.22588,0.075 0.50133,-0.1065 0.71428,0 3.26901,1.6345 -3.03101,-0.2961 2.14286,1.4285 0.22588,0.075 0.50133,-0.1064 0.71429,0 0.2147,0.1074 1.21386,1.3213 1.42857,1.4286 0.21296,0.1065 0.50133,-0.1065 0.71428,0 0.30117,0.1506 0.43412,0.5275 0.71429,0.7143 0.44298,0.2953 0.98559,0.419 1.42857,0.7143 0.28017,0.1868 0.41312,0.5637 0.71429,0.7143 0.26034,0.1301 3.15986,0 3.57143,0 0.47619,0 0.95238,0 1.42857,0 0.47619,0 0.97681,0.1506 1.42857,0 0.63888,-0.213 0.82623,-1.1274 1.42857,-1.4286 0.42592,-0.213 1.09185,0.3367 1.42857,0 0.16836,-0.1684 -0.10648,-0.5013 0,-0.7143 0.15059,-0.3012 0.47619,-0.4762 0.71429,-0.7143 0.23809,-0.2381 0.39484,-0.6078 0.71428,-0.7143 0.45176,-0.1505 0.95238,0 1.42857,0 0.2381,0 0.50133,0.1065 0.71429,0 2.97269,-1.4863 -0.7636,0.049 0.71429,-1.4285 0.004,0 2.11897,0.01 2.14285,0 1.03301,-0.2583 1.84699,-1.0919 2.85715,-1.4286 0.22587,-0.075 0.50132,0.1065 0.71428,0 0.30117,-0.1506 0.39485,-0.6078 0.71429,-0.7143 0.45175,-0.1506 0.97681,0.1506 1.42857,0 0.31944,-0.1065 0.41312,-0.5637 0.71428,-0.7143 0.21296,-0.1065 0.4762,0 0.71429,0 0.2381,-0.2381 0.43412,-0.5275 0.71429,-0.7143 1.87237,-1.2482 1.24824,-0.2669 3.57142,-1.4285 0.30117,-0.1506 0.41312,-0.5637 0.71429,-0.7143 0.21296,-0.1065 0.50133,0.1065 0.71429,0 0.60233,-0.3012 0.82623,-1.1274 1.42857,-1.4286 0.21296,-0.1065 0.50132,0.1065 0.71428,0 1.62582,-1.6258 -0.14793,-0.1888 1.42857,-0.7143 5.17387,-1.7246 -1.12614,0.206 2.14286,-1.4285 0.21296,-0.1065 0.50133,0.1064 0.71429,0 0.60234,-0.3012 0.78969,-1.2157 1.42857,-1.4286 0.45175,-0.1506 1.00265,0.2129 1.42857,0 0.21296,-0.1065 -0.16836,-0.5459 0,-0.7143 0.16836,-0.1684 0.50133,0.1065 0.71429,0 0.30117,-0.1506 0.41311,-0.5637 0.71428,-0.7143 0.21296,-0.1065 0.47619,0 0.71429,0 0.47619,0 0.95238,0 1.42857,0 0.60599,0 3.81181,-0.1185 4.28571,0 1.41849,0.3546 2.86723,1.7882 4.28572,2.1429 0.46197,0.1155 0.98644,-0.1769 1.42857,0 0.79706,0.3188 1.34579,1.1097 2.14286,1.4285 0.44213,0.1769 0.97681,-0.1505 1.42857,0 0.31944,0.1065 0.41311,0.5637 0.71428,0.7143 0.21296,0.1065 0.4833,-0.058 0.71429,0 0.73044,0.1826 1.46942,0.3776 2.14286,0.7143 0.30117,0.1506 0.43412,0.5275 0.71428,0.7143 3.60843,2.4056 0.0165,0.01 2.14286,0.7143 1.2973,0.4324 1.3256,0.6113 2.14286,1.4286 0.23809,0.2381 0.39484,0.6078 0.71428,0.7142 0.45176,0.1506 1.00266,-0.2129 1.42857,0 0.21296,0.1065 -0.16836,0.546 0,0.7143 0.16836,0.1684 0.51618,-0.132 0.71429,0 0.56033,0.3736 0.95238,0.9524 1.42857,1.4286 0.2381,0.2381 0.39485,0.6078 0.71429,0.7143 0.45175,0.1506 1.00265,-0.213 1.42857,0 0.21296,0.1065 -0.16836,0.5459 0,0.7143 0.16836,0.1683 0.48841,-0.075 0.71428,0 0.50508,0.1683 0.98559,0.4189 1.42857,0.7143 0.28017,0.1867 0.39485,0.6078 0.71429,0.7142 0.45175,0.1506 0.97682,-0.1505 1.42857,0 0.63888,0.213 0.7897,1.2157 1.42857,1.4286 0.45176,0.1506 1.00266,-0.2129 1.42857,0 0.21296,0.1065 -0.16835,0.5459 0,0.7143 0.16836,0.1684 0.4833,-0.058 0.71429,0 0.73044,0.1826 1.41241,0.5317 2.14286,0.7143 0.23098,0.058 0.47619,0 0.71428,0 0.47619,0 0.95238,0 1.42857,0 0.95239,0 1.90477,0 2.85715,0 0.71428,0 1.42857,0 2.14285,0 0.2381,0 0.50133,0.1065 0.71429,0 0.30117,-0.1506 0.47619,-0.4762 0.71429,-0.7143 0.23809,-0.2381 0.5637,-0.4131 0.71428,-0.7143 0.10648,-0.2129 -0.10648,-0.5013 0,-0.7143 0.0948,-0.1896 1.95321,-2.048 2.14286,-2.1428 0.21296,-0.1065 0.54593,0.1683 0.71428,0 0.16836,-0.1684 -0.21295,-0.6078 0,-0.7143 0.42592,-0.213 0.95239,0 1.42858,0 1.10171,0 3.45052,0.167 4.28571,0 0.52206,-0.1044 0.9235,-0.5459 1.42857,-0.7143 0.22588,-0.075 0.47619,0 0.71429,0 0.67058,0 3.16215,0.1364 3.57143,0 0.31943,-0.1065 0.41311,-0.5637 0.71428,-0.7143 0.21296,-0.1065 0.47619,0 0.71429,0 0.45651,0 4.07967,0.103 4.28571,0 0.21296,-0.1065 -0.16836,-0.5459 0,-0.7143 0.16836,-0.1683 0.47619,0 0.71429,0 0.23809,0 0.47619,0 0.71428,0 2.14286,0 4.28572,0 6.42857,0 0.71429,0 1.50399,0.3195 2.14286,0 0.21296,-0.1065 -0.21296,-0.6078 0,-0.7143 0.20605,-0.103 3.8292,0 4.28572,0 0.16973,0 2.69705,-0.08 2.85714,0 2.17826,1.0892 -1.30639,0.5663 2.14286,1.4286 0.46197,0.1155 0.97681,-0.1506 1.42857,0 0.31944,0.1065 0.43412,0.5275 0.71428,0.7143 0.44298,0.2953 0.93426,0.5166 1.42857,0.7143 0.96645,1.4719 2.41968,0.3304 3.57143,0.7143 0.31944,0.1064 0.47619,0.4762 0.71429,0.7143 0.47619,0.2381 0.91207,0.5851 1.42857,0.7142 0.46197,0.1155 0.95238,0 1.42857,0 0.2381,0 0.50133,-0.1064 0.71429,0 0.60234,0.3012 0.78969,1.2157 1.42857,1.4286 0.45175,0.1506 0.97682,-0.1506 1.42857,0 0.31944,0.1065 0.43412,0.5275 0.71429,0.7143 0.44298,0.2953 0.92349,0.5459 1.42857,0.7143 0.45175,0.1506 0.97682,-0.1506 1.42857,0 5.17387,1.7246 -1.12615,-0.2059 2.14286,1.4285 0.42591,0.213 1.00265,-0.2129 1.42857,0 3.269,1.6346 -3.03101,-0.296 2.14285,1.4286 0.45176,0.1506 0.95239,0 1.42858,0 1.66666,0 3.33333,0 5,0 0.47619,0 0.96659,-0.1155 1.42857,0 3.44924,0.8623 -0.0354,0.3395 2.14285,1.4286 0.21296,0.1065 0.4762,0 0.71429,0 0.47619,0 0.95238,0 1.42857,0 1.42857,0 2.85714,0 4.28572,0 0.51065,0 3.92008,0.1219 4.28571,0 0.31944,-0.1065 0.41312,-0.5637 0.71429,-0.7143 0.42591,-0.2129 0.97681,0.1506 1.42857,0 0.50507,-0.1683 0.92349,-0.5459 1.42857,-0.7143 0.22588,-0.075 0.50133,0.1065 0.71428,0 0.30117,-0.1506 0.41312,-0.5637 0.71429,-0.7143 0.21296,-0.1064 0.50133,0.1065 0.71429,0 0.30117,-0.1506 0.41311,-0.5637 0.71428,-0.7143 0.21296,-0.1064 0.50133,0.1065 0.71429,0 0.60234,-0.3011 0.82623,-1.1274 1.42857,-1.4285 0.21296,-0.1065 0.54593,0.1683 0.71428,0 0.16836,-0.1684 -0.16835,-0.546 0,-0.7143 0.16836,-0.1684 0.50133,0.1065 0.71429,0 0.30117,-0.1506 0.47619,-0.4762 0.71429,-0.7143 0.23809,-0.2381 0.5637,-0.4131 0.71428,-0.7143 0.10648,-0.2129 -0.10648,-0.5013 0,-0.7143 0.42857,-0.8571 1.71429,-1.2857 2.14286,-2.1428 0.10648,-0.213 -0.16836,-0.5459 0,-0.7143 0.16836,-0.1684 0.54593,0.1684 0.71428,0 1.47789,-1.4779 -2.2584,0.058 0.71429,-1.4286 0.21296,-0.1065 0.54593,0.1684 0.71429,0 0.16835,-0.1683 -0.16836,-0.5459 0,-0.7143 0.33671,-0.3367 1.09185,0.3368 1.42857,0 0.16836,-0.1683 -0.21296,-0.6078 0,-0.7142 0.76194,-0.381 2.0952,0.3809 2.85714,0 0.21296,-0.1065 -0.16836,-0.546 0,-0.7143 0.16836,-0.1684 0.47619,0 0.71429,0 0.23809,0 0.47619,0 0.71428,0 3.57143,0 7.14286,0 10.71429,0 2.38095,0 4.7619,0 7.14285,0 0.16534,0 4.03059,-0.1276 4.28572,0 0.30117,0.1506 0.39485,0.6078 0.71428,0.7143 0.64286,0.2142 1.5,-0.2143 2.14286,0 0.50508,0.1683 0.9235,0.5459 1.42857,0.7142 0.22588,0.075 0.47619,0 0.71429,0 0.7428,0 3.72384,-0.1404 4.28571,0 0.5165,0.1292 0.9235,0.546 1.42857,0.7143 0.45176,0.1506 0.95239,0 1.42858,0 1.42857,0 2.85714,0 4.28571,0 0.71429,0 1.46523,-0.2258 2.14286,0 0.22587,0.075 -0.16836,0.546 0,0.7143 0.004,0 2.11898,-0.01 2.14285,0 1.29282,-0.4305 1.32845,1.1571 2.14286,1.4286 0.45176,0.1506 0.9666,-0.1155 1.42857,0 1.53954,0.3849 2.01471,1.8315 3.57143,2.1428 8.11206,1.6225 -3.35511,-2.0347 3.57143,1.4286 0.42592,0.213 1.00265,-0.2129 1.42857,0 0.60234,0.3012 0.88983,1.0245 1.42857,1.4286 0.85184,0.6389 1.97118,0.8379 2.85715,1.4285 0.28016,0.1868 0.43412,0.5276 0.71428,0.7143 0.88596,0.5907 1.97118,0.838 2.85714,1.4286 0.28017,0.1868 0.43412,0.5275 0.71429,0.7143 0.47619,0.2381 0.95238,0.4762 1.42857,0.7143 0.47619,0 1.00266,-0.213 1.42857,0 0.21296,0.1065 -0.21296,0.6078 0,0.7143 0.42592,0.2129 0.95238,0 1.42857,0 0.16974,0 2.69705,0.08 2.85715,0 0.60234,-0.3012 0.82623,-1.1274 1.42857,-1.4286 2.10201,-1.051 -0.94042,1.6547 1.42857,-0.7143 0.2381,-0.2381 0.5637,-0.4131 0.71429,-0.7143 0.10648,-0.2129 -0.21296,-0.6078 0,-0.7143 0.63887,-0.3194 1.50398,0.3195 2.14285,0 0.30117,-0.1506 0.43412,-0.5275 0.71429,-0.7143 0.47619,-0.238 0.95238,-0.4761 1.42857,-0.7142 0.2381,0 0.50133,0.1064 0.71429,0 0.30117,-0.1506 0.41311,-0.5637 0.71428,-0.7143 0.45425,-0.2271 2.97984,0.1972 3.57143,0 0.31944,-0.1065 0.41312,-0.5637 0.71429,-0.7143 0.44894,-0.2245 2.40819,0.2245 2.85714,0 2.17826,-1.0891 -1.30639,-0.5663 2.14286,-1.4286 0.69296,-0.1732 1.42857,0 2.14285,0 1.66667,0 3.33334,0 5,0 1.42857,0 2.85715,0 4.28572,0 0.47619,0 0.95238,0 1.42857,0 0.23809,0 0.48841,-0.075 0.71428,0 1.01016,0.3367 1.82415,1.1703 2.85715,1.4286 0.97295,0.2432 3.42158,-0.2881 4.28571,0 0.31944,0.1065 0.41312,0.5637 0.71429,0.7143 0.42592,0.2129 0.97682,-0.1506 1.42857,0 0.50508,0.1683 0.92349,0.5459 1.42857,0.7143 0.26888,0.09 3.51257,0.02 3.57143,0 0.31944,-0.1065 0.41312,-0.5637 0.71428,-0.7143 0.26034,-0.1302 3.15986,0 3.57143,0 1.90477,0 3.80953,0 5.71429,0 0.47619,0 0.95238,0 1.42857,0 0.47619,0 0.9666,-0.1155 1.42857,0 0.5165,0.1291 0.91207,0.5851 1.42857,0.7143 0.46198,0.1155 0.96163,-0.093 1.42857,0 0.73831,0.1476 1.40018,0.5905 2.14286,0.7142 0.70457,0.1175 1.44244,-0.14 2.14286,0 0.52206,0.1045 0.91207,0.5852 1.42857,0.7143 0.70849,0.1772 3.79271,-0.2465 4.28571,0 0.21296,0.1065 -0.16835,0.546 0,0.7143 0.16836,0.1684 0.4762,0 0.71429,0 0.76196,0 3.02397,0 3.57143,0 7.38095,0 14.7619,0 22.14286,0 4.28571,0 8.57142,0 12.85714,0 0.51177,0 3.39851,0 3.57143,0 0.71428,0 1.46522,0.2259 2.14285,0 0.63888,-0.2129 0.82624,-1.1274 1.42858,-1.4286 0.21296,-0.1064 0.47619,0 0.71428,0 0.2381,-0.238 0.41312,-0.5636 0.71429,-0.7142 0.21296,-0.1065 0.50132,0.1064 0.71428,0 0.38149,-0.1908 1.76681,-1.7668 2.14286,-2.1429 0.2381,-0.2381 0.5637,-0.4131 0.71429,-0.7143 0.10648,-0.2129 -0.21296,-0.6078 0,-0.7143 0.42591,-0.2129 1.00265,0.213 1.42857,0 0.21296,-0.1064 -0.10648,-0.5013 0,-0.7142 0.15058,-0.3012 0.47619,-0.4762 0.71428,-0.7143 0.2381,-0.2381 0.41312,-0.5637 0.71429,-0.7143 0.42592,-0.213 1.00265,0.2129 1.42857,0 0.60234,-0.3012 0.86824,-1.055 1.42857,-1.4286 0.44298,-0.2953 0.95238,-0.4762 1.42857,-0.7143 0.47619,-0.2381 0.91207,-0.5851 1.42857,-0.7143 0.92395,-0.2309 2.00531,0.426 2.85715,0 0.21296,-0.1064 -0.21296,-0.6078 0,-0.7142 0.42592,-0.213 1.00265,0.2129 1.42857,0 0.21296,-0.1065 -0.16836,-0.546 0,-0.7143 0.33672,-0.3367 1.00265,0.2129 1.42857,0 0.30117,-0.1506 0.39485,-0.6078 0.71429,-0.7143 0.9035,-0.3012 1.95363,0.3012 2.85714,0 0.31944,-0.1065 0.41312,-0.5637 0.71428,-0.7143 0.44895,-0.2245 2.4082,0.2245 2.85715,0 0.30117,-0.1506 0.39485,-0.6078 0.71428,-0.7143 0.45176,-0.1506 0.96163,0.093 1.42857,0 0.73831,-0.1476 1.40456,-0.5666 2.14286,-0.7143 0.91046,-0.1821 3.56179,0.2413 4.28572,0 0.31943,-0.1065 0.41311,-0.5637 0.71428,-0.7143 0.21296,-0.1064 0.47619,0 0.71429,0 0.47619,0 0.9666,0.1155 1.42857,0 0.5165,-0.1291 0.92349,-0.5459 1.42857,-0.7142 0.47243,-0.1575 3.58403,0 4.28571,0 3.09524,0 6.19048,0 9.28572,0 1.90476,0 3.80952,0 5.71429,0 0.71428,0 1.42857,0 2.14285,0 0.71429,0 1.43829,-0.1175 2.14286,0 1.48536,0.2475 2.80036,1.181 4.28571,1.4285 1.40914,0.2349 2.87658,-0.2348 4.28572,0 0.74268,0.1238 1.4189,0.5075 2.14286,0.7143 0.94392,0.2697 1.93795,0.3696 2.85714,0.7143 2.0817,0.7806 2.8715,1.7881 5,2.1429 0.96755,0.1612 3.81722,0 5,0 0.47619,0 0.95238,0 1.42857,0 0.23809,0 0.50133,-0.1065 0.71429,0 2.17825,1.0891 -1.30639,0.5662 2.14285,1.4285 0.46197,0.1155 0.97682,-0.1506 1.42857,0 0.63888,0.213 0.86824,1.055 1.42858,1.4286 0.13305,0.089 2.81137,1.3828 2.85714,1.4286 0.16836,0.1683 -0.16836,0.5459 0,0.7143 0.16836,0.1683 0.54592,-0.1684 0.71428,0 0.16836,0.1683 -0.16836,0.5459 0,0.7142 0.16836,0.1684 0.50133,-0.1064 0.71429,0 0.70288,0.3515 2.15426,2.5057 2.85714,2.8572 0.21296,0.1065 0.50133,-0.1065 0.71429,0 0.30117,0.1506 0.41311,0.5637 0.71428,0.7143 0.21296,0.1064 0.54593,-0.1684 0.71429,0 0.16836,0.1683 -0.16836,0.5459 0,0.7143 0.16836,0.1683 0.54593,-0.1684 0.71429,0 1.47788,1.4778 -2.25841,-0.058 0.71428,1.4285 0.21296,0.1065 0.50133,-0.1065 0.71429,0 1.09398,0.547 0.55858,1.2729 1.42857,2.1429 0.95238,0.9524 0.71428,-1.1905 0.71428,0.7143"
       id="path3028"
       inkscape:connector-curvature="0"
       inkscape:export-filename="G:\gradle-2.2\test\android\assets\data\landscape.png"
       inkscape:export-xdpi="90"
       inkscape:export-ydpi="90" />
    <path
       style="fill:#008000;fill-opacity:1;stroke:none"
       d="m 34.037397,1019.2581 -0.09028,-0.069 -11.339927,17.5379 0,0.2165 23.59455,0 -12.204204,-17.5009 z"
       id="rect3021"
       inkscape:connector-curvature="0"
       sodipodi:nodetypes="ccccccc" />
    <path
       sodipodi:nodetypes="ccccccc"
       inkscape:connector-curvature="0"
       id="path3030"
       d="m 670.93858,1014.7124 -0.0903,-0.069 -11.33993,17.5379 0,0.2165 23.59455,0 -12.2042,-17.5009 z"
       style="fill:#008000;fill-opacity:1;stroke:none" />
    <rect
       style="fill:#ff0000;fill-opacity:1;stroke:#ffff00;stroke-width:1.48020887"
       id="rect2995"
       width="718.51984"
       height="478.51981"
       x="-4.6963763"
       y="385.30264"
       inkscape:export-filename="G:\gradle-2.2\test\android\assets\data\blank_red.png"
       inkscape:export-xdpi="90"
       inkscape:export-ydpi="90" />
    <flowRoot
       xml:space="preserve"
       id="flowRoot2997"
       style="font-size:40px;font-style:normal;font-weight:normal;line-height:125%;letter-spacing:0px;word-spacing:0px;fill:#000000;fill-opacity:1;stroke:none;font-family:Sans"
       transform="matrix(0.8215138,0,0,0.86175528,44.18221,451.74893)"><flowRegion
         id="flowRegion2999"><rect
           id="rect3001"
           width="164.65486"
           height="49.497475"
           x="154.55334"
           y="111.29432" /></flowRegion><flowPara
         id="flowPara3003">basic</flowPara><flowPara
         id="flowPara3005" /></flowRoot>    <flowRoot
       transform="matrix(0.8215138,0,0,0.86175528,43.692647,499.62668)"
       style="font-size:40px;font-style:normal;font-weight:normal;line-height:125%;letter-spacing:0px;word-spacing:0px;fill:#000000;fill-opacity:1;stroke:none;font-family:Sans"
       id="flowRoot3007"
       xml:space="preserve"><flowRegion
         id="flowRegion3009"><rect
           y="111.29432"
           x="154.55334"
           height="49.497475"
           width="164.65486"
           id="rect3011-1" /></flowRegion><flowPara
         id="flowPara3015">cities</flowPara><flowPara
         id="flowPara3019" /></flowRoot>    <flowRoot
       xml:space="preserve"
       id="flowRoot3021"
       style="font-size:40px;font-style:normal;font-weight:normal;line-height:125%;letter-spacing:0px;word-spacing:0px;fill:#000000;fill-opacity:1;stroke:none;font-family:Sans"
       transform="matrix(0.8215138,0,0,0.86175528,27.776145,547.50441)"><flowRegion
         id="flowRegion3023"><rect
           id="rect3025"
           width="164.65486"
           height="49.497475"
           x="154.55334"
           y="111.29432" /></flowRegion><flowPara
         id="flowPara3029">missiles le</flowPara></flowRoot>    <flowRoot
       transform="matrix(0.8215138,0,0,0.86175528,21.814307,399.70013)"
       style="font-size:40px;font-style:normal;font-weight:normal;line-height:125%;letter-spacing:0px;word-spacing:0px;fill:#000000;fill-opacity:1;stroke:none;font-family:Sans"
       id="flowRoot3031"
       xml:space="preserve"><flowRegion
         id="flowRegion3033"><rect
           y="111.29432"
           x="154.55334"
           height="49.497475"
           width="164.65486"
           id="rect3035" /></flowRegion><flowPara
         id="flowPara3039">previous</flowPara></flowRoot>    <flowRoot
       xml:space="preserve"
       id="flowRoot3041"
       style="font-size:40px;font-style:normal;font-weight:normal;line-height:125%;letter-spacing:0px;word-spacing:0px;fill:#000000;fill-opacity:1;stroke:none;font-family:Sans"
       transform="matrix(0.8215138,0,0,0.86175528,48.791155,608.78423)"><flowRegion
         id="flowRegion3043"><rect
           id="rect3045"
           width="164.65486"
           height="49.497475"
           x="154.55334"
           y="111.29432" /></flowRegion><flowPara
         id="flowPara3049">total</flowPara></flowRoot>    <flowRoot
       xml:space="preserve"
       id="flowRoot3057"
       style="font-size:40px;font-style:normal;font-weight:normal;line-height:125%;letter-spacing:0px;word-spacing:0px;fill:#000000;fill-opacity:1;stroke:none;font-family:Sans"
       transform="matrix(1.0496636,0,0,1.1010809,112.85056,406.84229)"><flowRegion
         id="flowRegion3059"><rect
           id="rect3061"
           width="164.65486"
           height="49.497475"
           x="154.55334"
           y="111.29432" /></flowRegion><flowPara
         id="flowPara3063">scores</flowPara></flowRoot>    <flowRoot
       xml:space="preserve"
       id="flowRoot2985"
       style="font-size:40px;font-style:normal;font-weight:normal;line-height:125%;letter-spacing:0px;word-spacing:0px;fill:#ffffff;fill-opacity:1;stroke:none;font-family:Sans"
       transform="matrix(2.3731956,0,0,2.7489933,-240.64621,-20.375338)"
       inkscape:export-filename="G:\gradle-2.2\test\android\assets\data\the_end.png"
       inkscape:export-xdpi="90"
       inkscape:export-ydpi="90"><flowRegion
         id="flowRegion2987"><rect
           id="rect2989"
           width="346.48233"
           height="128.28937"
           x="164.65486"
           y="153.72073"
           style="fill:#ffffff" /></flowRegion><flowPara
         id="flowPara2991">The End</flowPara><flowPara
         id="flowPara2993" /></flowRoot>  </g>
</svg>
