<?xml version="1.0" encoding="UTF-8" standalone="no"?>
<!-- Created with Inkscape (http://www.inkscape.org/) -->

<svg
   xmlns:dc="http://purl.org/dc/elements/1.1/"
   xmlns:cc="http://creativecommons.org/ns#"
   xmlns:rdf="http://www.w3.org/1999/02/22-rdf-syntax-ns#"
   xmlns:svg="http://www.w3.org/2000/svg"
   xmlns="http://www.w3.org/2000/svg"
   xmlns:xlink="http://www.w3.org/1999/xlink"
   xmlns:sodipodi="http://sodipodi.sourceforge.net/DTD/sodipodi-0.dtd"
   xmlns:inkscape="http://www.inkscape.org/namespaces/inkscape"
   width="480"
   height="480"
   id="svg2"
   version="1.1"
   inkscape:version="0.48.4 r9939"
   sodipodi:docname="New document 1">
  <defs
     id="defs4">
    <linearGradient
       id="linearGradient5223">
      <stop
         style="stop-color:#ffffff;stop-opacity:1;"
         offset="0"
         id="stop5225" />
      <stop
         style="stop-color:#0000ff;stop-opacity:0.48214287;"
         offset="1"
         id="stop5227" />
    </linearGradient>
    <linearGradient
       id="linearGradient2999">
      <stop
         style="stop-color:#ff0000;stop-opacity:1;"
         offset="0"
         id="stop3001" />
      <stop
         style="stop-color:#ffffff;stop-opacity:0.29464287;"
         offset="1"
         id="stop3003" />
    </linearGradient>
    <filter
       inkscape:collect="always"
       id="filter3777"
       x="-0.20347826"
       width="1.4069565"
       y="-0.20347826"
       height="1.4069565">
      <feGaussianBlur
         inkscape:collect="always"
         stdDeviation="10.852174"
         id="feGaussianBlur3779" />
    </filter>
    <radialGradient
       inkscape:collect="always"
       xlink:href="#linearGradient5223"
       id="radialGradient5231"
       cx="-52.071426"
       cy="735.14789"
       fx="-52.071426"
       fy="735.14789"
       r="90.045219"
       gradientUnits="userSpaceOnUse"
       gradientTransform="translate(387.17792,177.54095)" />
  </defs>
  <sodipodi:namedview
     id="base"
     pagecolor="#ffffff"
     bordercolor="#666666"
     borderopacity="1.0"
     inkscape:pageopacity="0.0"
     inkscape:pageshadow="2"
     inkscape:zoom="2.8"
     inkscape:cx="281.30438"
     inkscape:cy="422.45824"
     inkscape:document-units="px"
     inkscape:current-layer="layer1"
     showgrid="false"
     showguides="true"
     inkscape:guide-bbox="true"
     inkscape:window-width="1920"
     inkscape:window-height="1017"
     inkscape:window-x="-8"
     inkscape:window-y="-8"
     inkscape:window-maximized="1" />
  <metadata
     id="metadata7">
    <rdf:RDF>
      <cc:Work
         rdf:about="">
        <dc:format>image/svg+xml</dc:format>
        <dc:type
           rdf:resource="http://purl.org/dc/dcmitype/StillImage" />
        <dc:title></dc:title>
      </cc:Work>
    </rdf:RDF>
  </metadata>
  <g
     inkscape:label="Layer 1"
     inkscape:groupmode="layer"
     id="layer1"
     transform="translate(0,-572.36218)">
    <rect
       ry="30.939201"
       rx="0"
       y="849.36218"
       x="270"
       height="128"
       width="128"
       id="rect2993"
       style="fill:#0000ff;fill-opacity:1;stroke:none"
       inkscape:export-filename="G:\GitHub\SmallGames\SmallGames-android\assets\data\blue2.png"
       inkscape:export-xdpi="90"
       inkscape:export-ydpi="90" />
    <rect
       inkscape:export-ydpi="90"
       inkscape:export-xdpi="90"
       inkscape:export-filename="G:\GitHub\SmallGames\SmallGames-android\assets\data\red.png"
       ry="30.939201"
       rx="0"
       y="848.68878"
       x="271.10651"
       height="128"
       width="128"
       id="rect3007"
       style="fill:url(#radialGradient5231);fill-opacity:1;stroke:none;filter:url(#filter3777)" />
    <rect
       style="fill:#00ff00;fill-opacity:1;stroke:none"
       id="rect2991"
       width="128"
       height="128"
       x="85"
       y="849.36218"
       rx="0"
       ry="30.939201"
       inkscape:export-filename="G:\GitHub\SmallGames\SmallGames-android\assets\data\green2.png"
       inkscape:export-xdpi="90"
       inkscape:export-ydpi="90" />
    <rect
       style="fill:#000000;fill-opacity:1;stroke:none"
       id="rect2995"
       width="478.57144"
       height="481.42856"
       x="611.23114"
       y="690.25415"
       ry="30.939201" />
    <rect
       style="fill:#ff0000;fill-opacity:1;stroke:none"
       id="rect2987"
       width="128"
       height="128"
       x="85"
       y="684.36218"
       rx="0"
       ry="30.939201"
       inkscape:export-filename="G:\GitHub\SmallGames\SmallGames-android\assets\data\red1.png"
       inkscape:export-xdpi="90"
       inkscape:export-ydpi="90" />
    <rect
       ry="30.939201"
       rx="0"
       y="684.36218"
       x="270"
       height="128"
       width="128"
       id="rect2989"
       style="fill:#ffff00;fill-opacity:1;stroke:none"
       inkscape:export-filename="G:\GitHub\SmallGames\SmallGames-android\assets\data\yellow2.png"
       inkscape:export-xdpi="90"
       inkscape:export-ydpi="90" />
    <rect
       style="fill:#000000;fill-opacity:1;stroke:none"
       id="rect5233"
       width="6.0609155"
       height="6.0609155"
       x="240"
       y="806.30127"
       ry="3.0304577" />
    <g
       id="g5327"
       inkscape:export-filename="G:\GitHub\SmallGames\SmallGames-android\assets\data\begin.png"
       inkscape:export-xdpi="90"
       inkscape:export-ydpi="90">
      <g
         style="fill:#ffff00"
         id="g5271"
         transform="matrix(1.0203788,0,0,1.0322005,29.910343,-22.397536)">
        <path
           transform="translate(0,572.36218)"
           inkscape:connector-curvature="0"
           d="m 132.79358,21.934487 c -0.12268,2.102628 0.11035,4.199787 0.26381,6.294091 0.0931,1.833362 0.24105,3.658671 0.43396,5.484052 0.18825,1.54146 0.24806,3.092476 0.28442,4.643479 0.0246,1.592817 0.012,3.185803 0.005,4.778698 -0.0121,2.001203 -0.0148,4.002325 -0.0114,6.003548 0.0752,1.88996 -0.22984,3.7413 -0.65782,5.571723 -0.5362,2.275469 -1.44453,4.434471 -2.26176,6.61725 -0.80437,1.400027 -1.08703,3.255184 -2.31891,4.390911 -0.15829,0.145933 -0.36426,0.229605 -0.54639,0.344408 -2.49242,-0.137245 -4.98483,-0.274489 -7.47724,-0.411734 0,0 6.93681,-0.723856 6.93681,-0.723856 l 0,0 c -2.12855,0.07647 -4.2571,0.152934 -6.38565,0.229401 0.17985,0.01469 0.37372,0.115226 0.53955,0.04408 1.08649,-0.466119 1.73814,-3.16569 2.36054,-4.123086 0.82372,-2.145338 1.70888,-4.27961 2.24155,-6.521386 0.39116,-1.784075 0.70919,-3.580112 0.6504,-5.417902 0.005,-2.001281 0.003,-4.002476 -0.005,-6.003754 -0.005,-1.587848 -0.008,-3.175812 -0.0298,-4.763521 -0.0291,-1.531635 -0.0959,-3.062639 -0.25374,-4.587096 -0.18413,-1.833502 -0.36889,-3.66258 -0.41176,-5.506542 -0.14344,-2.113039 -0.34536,-4.223201 -0.34466,-6.342765 0,0 6.9881,0 6.9881,0 z"
           id="path5273"
           style="fill:#ffff00;fill-opacity:1;stroke:none" />
        <path
           transform="translate(0,572.36218)"
           inkscape:connector-curvature="0"
           d="m 138.80552,18.018768 c 1.89146,0.410405 3.71064,1.062301 5.43762,1.928717 1.96919,1.233201 3.86242,2.228313 5.64751,3.736703 1.33942,1.186988 2.2828,2.657891 2.82141,4.353274 0.36502,1.398691 0.35155,2.812387 -0.12618,4.173553 -0.87752,1.544664 -2.51348,2.395157 -4.09246,3.070243 -0.4404,0.04893 -1.43713,0.678367 -1.86393,0.724238 -0.0377,0.0041 -0.0311,-0.09886 0.004,-0.113817 0.074,-0.03172 0.16626,-0.02043 0.24127,0.0087 0.18921,0.07355 0.35605,0.19511 0.53408,0.292666 1.67674,1.037493 3.42399,1.961992 5.07667,3.042897 1.53549,0.791896 2.91825,1.831639 4.23607,2.939872 1.25007,1.049131 1.80685,2.382391 2.09362,3.949155 0.21469,2.714921 -0.58352,3.767316 -2.57358,5.494823 -2.90832,1.894815 -6.2095,3.083324 -9.41827,4.364992 -2.30841,0.922824 -4.72144,1.457915 -7.18513,1.723213 -2.94031,0.157339 -6.22808,1.25135 -8.83508,-0.275919 0,0 6.94014,-0.834245 6.94014,-0.834245 l 0,0 c 3.41667,0.617119 -9.12753,0.162182 -4.96141,0.08805 2.48858,-0.18662 4.93841,-0.627695 7.28318,-1.513571 3.17213,-1.22583 6.37712,-2.440576 9.32406,-4.153994 1.80051,-1.439896 2.74039,-2.31707 2.47912,-4.755903 -0.31243,-1.420915 -0.89684,-2.561599 -2.06855,-3.475985 -1.32119,-1.073675 -2.72121,-2.030009 -4.20988,-2.859218 -1.68004,-1.062347 -3.43166,-2.002951 -5.1152,-3.057802 -0.41974,-0.336983 -1.22741,-0.936289 -0.80976,-1.620269 0.27656,-0.452915 1.54218,-0.472581 1.94425,-0.796171 1.49268,-0.531692 2.99519,-1.235975 4.0052,-2.504173 0.5328,-1.186599 0.46317,-2.449363 0.13079,-3.692302 -0.52407,-1.572042 -1.45691,-2.895641 -2.73457,-3.961691 -1.74734,-1.381981 -3.69088,-2.461809 -5.6184,-3.571316 -1.77131,-0.792325 -3.61594,-1.393396 -5.52003,-1.780049 0,0 6.93366,-0.924701 6.93366,-0.924701 z"
           id="path5275"
           style="fill:#ffff00;fill-opacity:1;stroke:none" />
        <path
           transform="translate(0,572.36218)"
           inkscape:connector-curvature="0"
           d="m 174.61875,32.564131 c 1.31333,1.310174 2.90232,2.231937 4.56288,3.02124 0.6969,0.259089 1.40681,0.600444 2.15431,0.696992 0.22402,0.02894 0.90341,0.01378 0.67754,0.01181 -6.49672,-0.05677 -8.32089,0.420479 -5.73659,-0.190259 1.18429,-0.519729 1.64156,-1.525846 1.90655,-2.717451 0.37643,-2.06551 -1.00854,-2.221642 -2.68133,-2.680963 -2.50096,-0.692118 -5.08408,-0.977087 -7.667,-1.125166 11.03092,0.226494 5.80985,-0.544451 3.77553,0.629038 -0.91984,0.530609 -1.43638,1.267354 -1.96339,2.154569 -1.02819,2.564315 -1.0084,5.384229 -1.08912,8.10498 0.18018,2.867754 1.01546,5.791803 2.9769,7.969304 0.3411,0.378682 0.74275,0.6981 1.11412,1.047151 2.15515,1.833022 4.29847,2.348148 7.02889,2.620301 1.72071,0.0928 0.85175,0.05796 2.60692,0.10315 0,0 -6.78644,1.051443 -6.78644,1.051443 l 0,0 c -1.77009,-0.07362 -0.89389,-0.02003 -2.62871,-0.158984 -2.79321,-0.387604 -4.91406,-1.114822 -7.03208,-3.077172 -0.36792,-0.384506 -0.76644,-0.741897 -1.10375,-1.153517 -1.9349,-2.361191 -2.779,-5.423931 -3.00241,-8.417328 0.046,-2.828646 0.063,-5.736804 1.0182,-8.433387 0.17185,-0.342373 0.3077,-0.705338 0.51557,-1.027121 2.43263,-3.765684 7.66457,-2.513775 11.37637,-2.444258 2.59938,0.1961 5.19439,0.540873 7.69941,1.289454 1.94851,0.70537 3.20056,1.398168 2.8166,3.694727 -0.27903,1.36689 -0.72912,2.589111 -1.9509,3.390294 -3.01583,1.770181 -7.70854,0.891645 -10.91856,-0.56809 -1.67902,-0.861782 -3.2247,-1.924163 -4.62963,-3.189181 0,0 6.96012,-0.601572 6.96012,-0.601572 z"
           id="path5277"
           style="fill:#ffff00;fill-opacity:1;stroke:none" />
        <path
           transform="translate(0,572.36218)"
           inkscape:connector-curvature="0"
           d="m 218.7798,29.869618 c 0.28291,1.815724 0.65503,3.613901 0.97516,5.422743 0.27943,1.558808 0.3456,3.142679 0.394,4.722075 -0.0359,1.65145 -0.28222,2.523229 -1.14942,3.929719 -0.75801,1.241408 -1.66739,2.233877 -3.01417,2.801237 -3.52858,0.894998 -7.63381,0.414019 -11.07518,0.380605 -1.48515,-0.132607 -2.77421,-0.852566 -3.97833,-1.680359 -1.56507,-1.257911 -2.1539,-3.080257 -2.54158,-4.972594 -0.286,-2.193153 -0.33083,-4.408633 -0.35142,-6.617461 0.0219,-1.758823 -0.0605,-3.521938 0.0691,-5.277051 0.0611,-1.450855 0.47008,-2.749126 1.48666,-3.796077 0.85528,-0.879935 1.90371,-1.154185 3.08193,-1.303501 3.96818,-0.08913 8.07867,-0.386591 12.02066,0.361356 1.33702,0.269866 2.3579,1.038048 3.45555,1.777994 0.56359,0.570099 1.25643,1.014657 1.80546,1.598245 0.25057,0.266342 0.45033,0.576765 0.69131,0.851816 0.74239,1.01846 1.18037,2.232694 1.56862,3.423335 0.24871,1.527238 0.5479,3.037774 0.90373,4.543342 0.43037,1.634063 0.72488,3.284211 0.88976,4.965213 0.18311,1.868625 0.16464,3.747577 0.1674,5.622684 -0.0181,2.844857 -0.0354,5.689711 -0.0486,8.534605 -0.004,2.910808 0.004,5.821738 0.0358,8.732388 0.0631,1.933007 0.0283,3.859247 -0.2716,5.771491 -0.33028,1.750539 -1.15214,3.283191 -2.36807,4.563935 -0.98353,1.015416 -2.23385,1.428961 -3.5902,1.652023 -5.54717,0.168661 -7.53994,1.200718 -10.71223,-2.329895 -1.42127,-1.6786 -2.00475,-3.736951 -2.35556,-5.860399 -0.32697,-1.874725 -0.26197,-3.714058 0.37981,-5.505971 0.66608,-1.435578 1.60408,-2.771994 2.90058,-3.694741 0.1952,-0.09621 0.39041,-0.192423 0.58561,-0.288634 0,0 6.9264,0.825107 6.9264,0.825107 l 0,0 c -0.19229,0.06087 -0.38458,0.12174 -0.57687,0.18261 -1.34633,0.644242 -2.22001,1.938623 -2.89664,3.232193 -0.69331,1.648009 -0.67991,3.38228 -0.40757,5.134118 0.34445,2.005364 0.91916,3.933133 2.36252,5.443604 0.7407,0.709907 1.57179,1.441548 2.59122,1.716167 0.20053,0.05402 0.82396,0.08608 0.61634,0.09122 -2.1058,0.05214 -4.21276,0.03332 -6.31914,0.04998 1.28793,-0.114502 2.55191,-0.310172 3.56128,-1.193642 1.25513,-1.184119 2.02206,-2.406581 2.37154,-4.128566 0.31174,-1.876432 0.3262,-3.76195 0.30696,-5.660689 0.0327,-2.910777 0.0419,-5.821825 0.0417,-8.73277 -0.009,-2.843643 -0.0164,-5.687292 -0.0429,-8.530843 -0.0149,-1.852753 -0.0336,-3.707981 -0.18723,-5.555492 -0.17527,-1.651159 -0.49832,-3.265398 -0.91158,-4.873157 -0.35655,-1.485963 -0.61054,-2.987828 -0.92134,-4.482213 -0.37751,-1.11369 -0.80497,-2.241666 -1.57425,-3.149482 -0.72777,-0.855547 -1.56594,-1.603954 -2.47037,-2.270507 -1.03928,-0.719615 -2.12203,-1.281588 -3.39158,-1.477511 -0.78583,-0.104674 -1.57195,-0.19001 -2.36275,-0.249317 -0.3014,-0.0226 -1.20713,-0.05094 -0.90495,-0.05668 11.59033,-0.219938 7.05856,-0.0767 5.01336,-0.0084 -1.07565,0.06295 -2.17364,0.09665 -2.99965,0.878276 -1.09703,0.763721 -1.4351,1.951637 -1.50853,3.249211 -0.1345,1.73596 -0.052,3.480857 -0.0874,5.22072 0.004,2.161539 -0.004,4.336535 0.34216,6.476474 0.38695,1.750704 0.98685,3.388659 2.5499,4.425906 1.2152,0.739635 2.49848,1.287594 3.94344,1.336709 -12.16801,0.06944 -5.48068,0.228512 -2.72707,-0.212252 1.50203,-0.369704 2.12633,-1.055536 2.97801,-2.32645 0.056,-0.08632 0.66934,-1.02408 0.72633,-1.143047 0.34996,-0.730487 0.30094,-1.594212 0.4106,-2.376458 -0.0328,-1.545193 -0.10371,-3.092895 -0.36605,-4.619037 -0.31585,-1.795639 -0.62513,-3.596258 -1.03363,-5.372519 0,0 6.99295,-0.171346 6.99295,-0.171346 z"
           id="path5279"
           style="fill:#ffff00;fill-opacity:1;stroke:none" />
        <path
           transform="translate(0,572.36218)"
           inkscape:connector-curvature="0"
           d="m 252.50126,31.47052 c 1.3e-4,1.738989 0.44123,3.459233 0.7036,5.177359 0.21569,1.368609 0.26328,2.754046 0.29486,4.13667 0.006,1.241056 0.014,2.482157 0.006,3.723213 0.0518,1.619232 -0.32182,3.18014 -1.11785,4.584889 -0.35431,0.4392 -0.43797,0.618439 -0.92808,0.922283 -2.31006,1.432137 -9.81561,0.558046 -9.87938,0.557586 -1.27254,-0.328751 -0.64792,-0.132099 -1.87412,-0.589101 0,0 6.87049,-0.863088 6.87049,-0.863088 l 0,0 c 1.21324,0.354292 0.59506,0.213893 1.85507,0.418925 -12.73488,0.17502 -5.85814,0.445179 -3.91594,-0.225013 0.52836,-0.18232 0.5104,-0.241756 0.91686,-0.612386 0.87063,-1.236578 1.16697,-2.692675 1.09645,-4.195443 -0.004,-1.236218 0.0153,-2.472529 -0.007,-3.708666 -0.0202,-1.352954 -0.0697,-2.706906 -0.25775,-4.048765 -0.24752,-1.760263 -0.67843,-3.502969 -0.76048,-5.278463 0,0 6.99732,0 6.99732,0 z"
           id="path5281"
           style="fill:#ffff00;fill-opacity:1;stroke:none" />
        <path
           transform="translate(0,572.36218)"
           inkscape:connector-curvature="0"
           d="m 246.33857,18.234721 c 1.36409,0.960634 2.42945,2.183453 3.13048,3.691769 0.27463,0.811827 0.1595,0.406786 0.34923,1.214032 0,0 -6.98108,0.166262 -6.98108,0.166262 l 0,0 c -0.17896,-0.711781 -0.0699,-0.356065 -0.33042,-1.066108 -0.70311,-1.388105 -1.76396,-2.501977 -3.1263,-3.271498 0,0 6.95809,-0.734457 6.95809,-0.734457 z"
           id="path5283"
           style="fill:#ffff00;fill-opacity:1;stroke:none" />
        <path
           transform="translate(0,572.36218)"
           inkscape:connector-curvature="0"
           d="m 269.06806,26.411786 c 1.49492,1.177623 2.84125,2.554263 3.95109,4.099332 1.05292,1.338514 1.70381,2.897188 2.30436,4.47278 0.61337,1.745768 0.73713,3.59759 0.82863,5.429948 0.0692,1.793895 0.0686,3.589219 0.0739,5.384104 0.011,1.578266 -0.013,3.156409 -0.0132,4.734653 -0.12473,1.358366 -0.41817,2.668193 -1.08725,3.861222 0,0 -6.97812,-0.405981 -6.97812,-0.405981 l 0,0 c 0.78002,-0.999702 0.98575,-2.218547 1.1249,-3.455944 0.003,-1.578348 -0.0153,-3.156692 0.005,-4.735002 0.0107,-1.78233 0.0203,-3.565683 -0.0483,-5.347053 -0.0955,-1.761793 -0.22369,-3.542794 -0.85269,-5.209736 -0.59258,-1.513414 -1.24037,-3.005287 -2.27024,-4.283453 -1.15068,-1.466055 -2.43793,-2.843311 -3.99868,-3.88127 0,0 6.96021,-0.6636 6.96021,-0.6636 z"
           id="path5285"
           style="fill:#ffff00;fill-opacity:1;stroke:none" />
        <path
           transform="translate(0,572.36218)"
           inkscape:connector-curvature="0"
           d="m 267.15862,33.383772 c 1.68801,-1.167652 3.49176,-2.156111 5.35325,-3.01631 3.68152,-1.507003 7.9098,-0.87189 11.73725,-0.862445 2.19816,0.401463 4.2138,1.49517 6.24283,2.396978 1.75769,0.860171 2.64782,1.750575 3.49078,3.484714 0.69033,1.466949 0.80221,3.067716 0.89129,4.659763 0.0647,1.921008 0.0599,3.837711 -0.11244,5.752162 -0.0339,2.053062 -0.60498,3.993995 -1.24334,5.926622 -0.58448,1.483127 -1.33259,2.910063 -2.33258,4.154272 -0.15102,0.176457 -0.30203,0.352914 -0.45305,0.529371 0,0 -6.94712,-0.494761 -6.94712,-0.494761 l 0,0 c 0.15223,-0.175643 0.30445,-0.351287 0.45668,-0.52693 1.03134,-1.125428 1.73749,-2.505677 2.36005,-3.890353 0.66353,-1.866199 1.19819,-3.766774 1.23173,-5.761851 0.17721,-1.880715 0.19318,-3.76266 0.0933,-5.650079 -0.0821,-1.497027 -0.21255,-3.001854 -0.89069,-4.367257 -0.80084,-1.459319 -1.87345,-2.353545 -3.40758,-3.025703 -1.98793,-0.914954 -4.01795,-1.95514 -6.23156,-2.124631 11.90917,-0.0792 4.65151,-0.394668 1.99893,0.601421 -1.85448,0.765032 -3.64822,1.703587 -5.27754,2.878617 0,0 -6.9602,-0.6636 -6.9602,-0.6636 z"
           id="path5287"
           style="fill:#ffff00;fill-opacity:1;stroke:none" />
      </g>
      <g
         style="fill:#2ad4ff"
         transform="matrix(1.0203788,0,0,1.0322005,27.869585,-22.397536)"
         id="g5261">
        <path
           style="fill:#2ad4ff;fill-opacity:1;stroke:none"
           id="path5235"
           d="m 132.79358,21.934487 c -0.12268,2.102628 0.11035,4.199787 0.26381,6.294091 0.0931,1.833362 0.24105,3.658671 0.43396,5.484052 0.18825,1.54146 0.24806,3.092476 0.28442,4.643479 0.0246,1.592817 0.012,3.185803 0.005,4.778698 -0.0121,2.001203 -0.0148,4.002325 -0.0114,6.003548 0.0752,1.88996 -0.22984,3.7413 -0.65782,5.571723 -0.5362,2.275469 -1.44453,4.434471 -2.26176,6.61725 -0.80437,1.400027 -1.08703,3.255184 -2.31891,4.390911 -0.15829,0.145933 -0.36426,0.229605 -0.54639,0.344408 -2.49242,-0.137245 -4.98483,-0.274489 -7.47724,-0.411734 0,0 6.93681,-0.723856 6.93681,-0.723856 l 0,0 c -2.12855,0.07647 -4.2571,0.152934 -6.38565,0.229401 0.17985,0.01469 0.37372,0.115226 0.53955,0.04408 1.08649,-0.466119 1.73814,-3.16569 2.36054,-4.123086 0.82372,-2.145338 1.70888,-4.27961 2.24155,-6.521386 0.39116,-1.784075 0.70919,-3.580112 0.6504,-5.417902 0.005,-2.001281 0.003,-4.002476 -0.005,-6.003754 -0.005,-1.587848 -0.008,-3.175812 -0.0298,-4.763521 -0.0291,-1.531635 -0.0959,-3.062639 -0.25374,-4.587096 -0.18413,-1.833502 -0.36889,-3.66258 -0.41176,-5.506542 -0.14344,-2.113039 -0.34536,-4.223201 -0.34466,-6.342765 0,0 6.9881,0 6.9881,0 z"
           inkscape:connector-curvature="0"
           transform="translate(0,572.36218)" />
        <path
           style="fill:#2ad4ff;fill-opacity:1;stroke:none"
           id="path5237"
           d="m 138.80552,18.018768 c 1.89146,0.410405 3.71064,1.062301 5.43762,1.928717 1.96919,1.233201 3.86242,2.228313 5.64751,3.736703 1.33942,1.186988 2.2828,2.657891 2.82141,4.353274 0.36502,1.398691 0.35155,2.812387 -0.12618,4.173553 -0.87752,1.544664 -2.51348,2.395157 -4.09246,3.070243 -0.4404,0.04893 -1.43713,0.678367 -1.86393,0.724238 -0.0377,0.0041 -0.0311,-0.09886 0.004,-0.113817 0.074,-0.03172 0.16626,-0.02043 0.24127,0.0087 0.18921,0.07355 0.35605,0.19511 0.53408,0.292666 1.67674,1.037493 3.42399,1.961992 5.07667,3.042897 1.53549,0.791896 2.91825,1.831639 4.23607,2.939872 1.25007,1.049131 1.80685,2.382391 2.09362,3.949155 0.21469,2.714921 -0.58352,3.767316 -2.57358,5.494823 -2.90832,1.894815 -6.2095,3.083324 -9.41827,4.364992 -2.30841,0.922824 -4.72144,1.457915 -7.18513,1.723213 -2.94031,0.157339 -6.22808,1.25135 -8.83508,-0.275919 0,0 6.94014,-0.834245 6.94014,-0.834245 l 0,0 c 3.41667,0.617119 -9.12753,0.162182 -4.96141,0.08805 2.48858,-0.18662 4.93841,-0.627695 7.28318,-1.513571 3.17213,-1.22583 6.37712,-2.440576 9.32406,-4.153994 1.80051,-1.439896 2.74039,-2.31707 2.47912,-4.755903 -0.31243,-1.420915 -0.89684,-2.561599 -2.06855,-3.475985 -1.32119,-1.073675 -2.72121,-2.030009 -4.20988,-2.859218 -1.68004,-1.062347 -3.43166,-2.002951 -5.1152,-3.057802 -0.41974,-0.336983 -1.22741,-0.936289 -0.80976,-1.620269 0.27656,-0.452915 1.54218,-0.472581 1.94425,-0.796171 1.49268,-0.531692 2.99519,-1.235975 4.0052,-2.504173 0.5328,-1.186599 0.46317,-2.449363 0.13079,-3.692302 -0.52407,-1.572042 -1.45691,-2.895641 -2.73457,-3.961691 -1.74734,-1.381981 -3.69088,-2.461809 -5.6184,-3.571316 -1.77131,-0.792325 -3.61594,-1.393396 -5.52003,-1.780049 0,0 6.93366,-0.924701 6.93366,-0.924701 z"
           inkscape:connector-curvature="0"
           transform="translate(0,572.36218)" />
        <path
           style="fill:#2ad4ff;fill-opacity:1;stroke:none"
           id="path5239"
           d="m 174.61875,32.564131 c 1.31333,1.310174 2.90232,2.231937 4.56288,3.02124 0.6969,0.259089 1.40681,0.600444 2.15431,0.696992 0.22402,0.02894 0.90341,0.01378 0.67754,0.01181 -6.49672,-0.05677 -8.32089,0.420479 -5.73659,-0.190259 1.18429,-0.519729 1.64156,-1.525846 1.90655,-2.717451 0.37643,-2.06551 -1.00854,-2.221642 -2.68133,-2.680963 -2.50096,-0.692118 -5.08408,-0.977087 -7.667,-1.125166 11.03092,0.226494 5.80985,-0.544451 3.77553,0.629038 -0.91984,0.530609 -1.43638,1.267354 -1.96339,2.154569 -1.02819,2.564315 -1.0084,5.384229 -1.08912,8.10498 0.18018,2.867754 1.01546,5.791803 2.9769,7.969304 0.3411,0.378682 0.74275,0.6981 1.11412,1.047151 2.15515,1.833022 4.29847,2.348148 7.02889,2.620301 1.72071,0.0928 0.85175,0.05796 2.60692,0.10315 0,0 -6.78644,1.051443 -6.78644,1.051443 l 0,0 c -1.77009,-0.07362 -0.89389,-0.02003 -2.62871,-0.158984 -2.79321,-0.387604 -4.91406,-1.114822 -7.03208,-3.077172 -0.36792,-0.384506 -0.76644,-0.741897 -1.10375,-1.153517 -1.9349,-2.361191 -2.779,-5.423931 -3.00241,-8.417328 0.046,-2.828646 0.063,-5.736804 1.0182,-8.433387 0.17185,-0.342373 0.3077,-0.705338 0.51557,-1.027121 2.43263,-3.765684 7.66457,-2.513775 11.37637,-2.444258 2.59938,0.1961 5.19439,0.540873 7.69941,1.289454 1.94851,0.70537 3.20056,1.398168 2.8166,3.694727 -0.27903,1.36689 -0.72912,2.589111 -1.9509,3.390294 -3.01583,1.770181 -7.70854,0.891645 -10.91856,-0.56809 -1.67902,-0.861782 -3.2247,-1.924163 -4.62963,-3.189181 0,0 6.96012,-0.601572 6.96012,-0.601572 z"
           inkscape:connector-curvature="0"
           transform="translate(0,572.36218)" />
        <path
           style="fill:#2ad4ff;fill-opacity:1;stroke:none"
           id="path5249"
           d="m 218.7798,29.869618 c 0.28291,1.815724 0.65503,3.613901 0.97516,5.422743 0.27943,1.558808 0.3456,3.142679 0.394,4.722075 -0.0359,1.65145 -0.28222,2.523229 -1.14942,3.929719 -0.75801,1.241408 -1.66739,2.233877 -3.01417,2.801237 -3.52858,0.894998 -7.63381,0.414019 -11.07518,0.380605 -1.48515,-0.132607 -2.77421,-0.852566 -3.97833,-1.680359 -1.56507,-1.257911 -2.1539,-3.080257 -2.54158,-4.972594 -0.286,-2.193153 -0.33083,-4.408633 -0.35142,-6.617461 0.0219,-1.758823 -0.0605,-3.521938 0.0691,-5.277051 0.0611,-1.450855 0.47008,-2.749126 1.48666,-3.796077 0.85528,-0.879935 1.90371,-1.154185 3.08193,-1.303501 3.96818,-0.08913 8.07867,-0.386591 12.02066,0.361356 1.33702,0.269866 2.3579,1.038048 3.45555,1.777994 0.56359,0.570099 1.25643,1.014657 1.80546,1.598245 0.25057,0.266342 0.45033,0.576765 0.69131,0.851816 0.74239,1.01846 1.18037,2.232694 1.56862,3.423335 0.24871,1.527238 0.5479,3.037774 0.90373,4.543342 0.43037,1.634063 0.72488,3.284211 0.88976,4.965213 0.18311,1.868625 0.16464,3.747577 0.1674,5.622684 -0.0181,2.844857 -0.0354,5.689711 -0.0486,8.534605 -0.004,2.910808 0.004,5.821738 0.0358,8.732388 0.0631,1.933007 0.0283,3.859247 -0.2716,5.771491 -0.33028,1.750539 -1.15214,3.283191 -2.36807,4.563935 -0.98353,1.015416 -2.23385,1.428961 -3.5902,1.652023 -5.54717,0.168661 -7.53994,1.200718 -10.71223,-2.329895 -1.42127,-1.6786 -2.00475,-3.736951 -2.35556,-5.860399 -0.32697,-1.874725 -0.26197,-3.714058 0.37981,-5.505971 0.66608,-1.435578 1.60408,-2.771994 2.90058,-3.694741 0.1952,-0.09621 0.39041,-0.192423 0.58561,-0.288634 0,0 6.9264,0.825107 6.9264,0.825107 l 0,0 c -0.19229,0.06087 -0.38458,0.12174 -0.57687,0.18261 -1.34633,0.644242 -2.22001,1.938623 -2.89664,3.232193 -0.69331,1.648009 -0.67991,3.38228 -0.40757,5.134118 0.34445,2.005364 0.91916,3.933133 2.36252,5.443604 0.7407,0.709907 1.57179,1.441548 2.59122,1.716167 0.20053,0.05402 0.82396,0.08608 0.61634,0.09122 -2.1058,0.05214 -4.21276,0.03332 -6.31914,0.04998 1.28793,-0.114502 2.55191,-0.310172 3.56128,-1.193642 1.25513,-1.184119 2.02206,-2.406581 2.37154,-4.128566 0.31174,-1.876432 0.3262,-3.76195 0.30696,-5.660689 0.0327,-2.910777 0.0419,-5.821825 0.0417,-8.73277 -0.009,-2.843643 -0.0164,-5.687292 -0.0429,-8.530843 -0.0149,-1.852753 -0.0336,-3.707981 -0.18723,-5.555492 -0.17527,-1.651159 -0.49832,-3.265398 -0.91158,-4.873157 -0.35655,-1.485963 -0.61054,-2.987828 -0.92134,-4.482213 -0.37751,-1.11369 -0.80497,-2.241666 -1.57425,-3.149482 -0.72777,-0.855547 -1.56594,-1.603954 -2.47037,-2.270507 -1.03928,-0.719615 -2.12203,-1.281588 -3.39158,-1.477511 -0.78583,-0.104674 -1.57195,-0.19001 -2.36275,-0.249317 -0.3014,-0.0226 -1.20713,-0.05094 -0.90495,-0.05668 11.59033,-0.219938 7.05856,-0.0767 5.01336,-0.0084 -1.07565,0.06295 -2.17364,0.09665 -2.99965,0.878276 -1.09703,0.763721 -1.4351,1.951637 -1.50853,3.249211 -0.1345,1.73596 -0.052,3.480857 -0.0874,5.22072 0.004,2.161539 -0.004,4.336535 0.34216,6.476474 0.38695,1.750704 0.98685,3.388659 2.5499,4.425906 1.2152,0.739635 2.49848,1.287594 3.94344,1.336709 -12.16801,0.06944 -5.48068,0.228512 -2.72707,-0.212252 1.50203,-0.369704 2.12633,-1.055536 2.97801,-2.32645 0.056,-0.08632 0.66934,-1.02408 0.72633,-1.143047 0.34996,-0.730487 0.30094,-1.594212 0.4106,-2.376458 -0.0328,-1.545193 -0.10371,-3.092895 -0.36605,-4.619037 -0.31585,-1.795639 -0.62513,-3.596258 -1.03363,-5.372519 0,0 6.99295,-0.171346 6.99295,-0.171346 z"
           inkscape:connector-curvature="0"
           transform="translate(0,572.36218)" />
        <path
           style="fill:#2ad4ff;fill-opacity:1;stroke:none"
           id="path5251"
           d="m 252.50126,31.47052 c 1.3e-4,1.738989 0.44123,3.459233 0.7036,5.177359 0.21569,1.368609 0.26328,2.754046 0.29486,4.13667 0.006,1.241056 0.014,2.482157 0.006,3.723213 0.0518,1.619232 -0.32182,3.18014 -1.11785,4.584889 -0.35431,0.4392 -0.43797,0.618439 -0.92808,0.922283 -2.31006,1.432137 -9.81561,0.558046 -9.87938,0.557586 -1.27254,-0.328751 -0.64792,-0.132099 -1.87412,-0.589101 0,0 6.87049,-0.863088 6.87049,-0.863088 l 0,0 c 1.21324,0.354292 0.59506,0.213893 1.85507,0.418925 -12.73488,0.17502 -5.85814,0.445179 -3.91594,-0.225013 0.52836,-0.18232 0.5104,-0.241756 0.91686,-0.612386 0.87063,-1.236578 1.16697,-2.692675 1.09645,-4.195443 -0.004,-1.236218 0.0153,-2.472529 -0.007,-3.708666 -0.0202,-1.352954 -0.0697,-2.706906 -0.25775,-4.048765 -0.24752,-1.760263 -0.67843,-3.502969 -0.76048,-5.278463 0,0 6.99732,0 6.99732,0 z"
           inkscape:connector-curvature="0"
           transform="translate(0,572.36218)" />
        <path
           style="fill:#2ad4ff;fill-opacity:1;stroke:none"
           id="path5253"
           d="m 246.33857,18.234721 c 1.36409,0.960634 2.42945,2.183453 3.13048,3.691769 0.27463,0.811827 0.1595,0.406786 0.34923,1.214032 0,0 -6.98108,0.166262 -6.98108,0.166262 l 0,0 c -0.17896,-0.711781 -0.0699,-0.356065 -0.33042,-1.066108 -0.70311,-1.388105 -1.76396,-2.501977 -3.1263,-3.271498 0,0 6.95809,-0.734457 6.95809,-0.734457 z"
           inkscape:connector-curvature="0"
           transform="translate(0,572.36218)" />
        <path
           style="fill:#2ad4ff;fill-opacity:1;stroke:none"
           id="path5255"
           d="m 269.06806,26.411786 c 1.49492,1.177623 2.84125,2.554263 3.95109,4.099332 1.05292,1.338514 1.70381,2.897188 2.30436,4.47278 0.61337,1.745768 0.73713,3.59759 0.82863,5.429948 0.0692,1.793895 0.0686,3.589219 0.0739,5.384104 0.011,1.578266 -0.013,3.156409 -0.0132,4.734653 -0.12473,1.358366 -0.41817,2.668193 -1.08725,3.861222 0,0 -6.97812,-0.405981 -6.97812,-0.405981 l 0,0 c 0.78002,-0.999702 0.98575,-2.218547 1.1249,-3.455944 0.003,-1.578348 -0.0153,-3.156692 0.005,-4.735002 0.0107,-1.78233 0.0203,-3.565683 -0.0483,-5.347053 -0.0955,-1.761793 -0.22369,-3.542794 -0.85269,-5.209736 -0.59258,-1.513414 -1.24037,-3.005287 -2.27024,-4.283453 -1.15068,-1.466055 -2.43793,-2.843311 -3.99868,-3.88127 0,0 6.96021,-0.6636 6.96021,-0.6636 z"
           inkscape:connector-curvature="0"
           transform="translate(0,572.36218)" />
        <path
           style="fill:#2ad4ff;fill-opacity:1;stroke:none"
           id="path5259"
           d="m 267.15862,33.383772 c 1.68801,-1.167652 3.49176,-2.156111 5.35325,-3.01631 3.68152,-1.507003 7.9098,-0.87189 11.73725,-0.862445 2.19816,0.401463 4.2138,1.49517 6.24283,2.396978 1.75769,0.860171 2.64782,1.750575 3.49078,3.484714 0.69033,1.466949 0.80221,3.067716 0.89129,4.659763 0.0647,1.921008 0.0599,3.837711 -0.11244,5.752162 -0.0339,2.053062 -0.60498,3.993995 -1.24334,5.926622 -0.58448,1.483127 -1.33259,2.910063 -2.33258,4.154272 -0.15102,0.176457 -0.30203,0.352914 -0.45305,0.529371 0,0 -6.94712,-0.494761 -6.94712,-0.494761 l 0,0 c 0.15223,-0.175643 0.30445,-0.351287 0.45668,-0.52693 1.03134,-1.125428 1.73749,-2.505677 2.36005,-3.890353 0.66353,-1.866199 1.19819,-3.766774 1.23173,-5.761851 0.17721,-1.880715 0.19318,-3.76266 0.0933,-5.650079 -0.0821,-1.497027 -0.21255,-3.001854 -0.89069,-4.367257 -0.80084,-1.459319 -1.87345,-2.353545 -3.40758,-3.025703 -1.98793,-0.914954 -4.01795,-1.95514 -6.23156,-2.124631 11.90917,-0.0792 4.65151,-0.394668 1.99893,0.601421 -1.85448,0.765032 -3.64822,1.703587 -5.27754,2.878617 0,0 -6.9602,-0.6636 -6.9602,-0.6636 z"
           inkscape:connector-curvature="0"
           transform="translate(0,572.36218)" />
      </g>
    </g>
  </g>
</svg>
